<?xml version="1.0" encoding="utf-8"?>
<!-- Svg Vector Icons : http://www.onlinewebfonts.com/icon -->
<!DOCTYPE svg PUBLIC "-//W3C//DTD SVG 1.1//EN" "http://www.w3.org/Graphics/SVG/1.1/DTD/svg11.dtd">
<svg version="1.1" xmlns="http://www.w3.org/2000/svg" xmlns:xlink="http://www.w3.org/1999/xlink" x="0px" y="0px" viewBox="0 0 256 256" enable-background="new 0 0 256 256" xml:space="preserve">
<metadata> Svg Vector Icons : http://www.onlinewebfonts.com/icon </metadata>
<g><g><g><path fill="#000000" d="M78.2,10.5c-6.9,1-15.9,4.8-21.7,9.2C46.6,27.2,39.6,39,38,51.1c-0.7,5-0.7,148.7,0,153.7c0.3,2,1,5.3,1.7,7.4c5.5,17.5,20.1,30.2,38.1,33c6.2,1,94.3,1,100.5,0c20.4-3.3,36.3-19.2,39.6-39.6c1-6.3,1-149.2,0-155.5c-2.9-18-15.6-32.6-33-38.1c-2.1-0.7-5.4-1.4-7.4-1.7C173,9.8,82.4,9.8,78.2,10.5z M175.6,24.7c6.8,2.1,12.4,5.4,17.3,10.3c4.9,5,8.3,10.7,10.3,17.5l1.1,3.7v71.9v71.9l-1.1,3.7c-2,6.8-5.4,12.6-10.3,17.5c-5,4.9-10.7,8.3-17.5,10.3l-3.7,1.1H128H84.2l-3.7-1.1c-6.8-2-12.6-5.4-17.5-10.3c-4.9-5-8.3-10.7-10.3-17.5l-1.1-3.7v-71.9V56.3l1.1-3.7C54.7,45.7,58.1,40,63,35c6-5.9,13.2-9.7,21.4-11.1c1.2-0.2,21.5-0.3,45-0.3l42.8,0L175.6,24.7z"/><path fill="#000000" d="M90,127.7v50.8l20.4-0.2c20.1-0.2,20.4-0.2,24.8-1.4c2.4-0.7,5.6-1.7,7-2.4c11.1-4.9,19.6-15.4,22.9-28.1c1-3.9,1.1-5.1,1.1-18.8c0-13.7,0-14.9-1.1-18.8c-3.4-13.6-12.3-23.8-24.9-28.7c-7.1-2.7-8.1-2.8-29.9-3.1L90,76.9L90,127.7L90,127.7z M128.5,88.4c11.5,2.4,18.8,9.7,22.3,22.6c1.2,4.4,1.2,28.8,0,33.9c-2.1,9-7.5,16-15.5,19.8c-5.2,2.5-8.9,3-21.2,3h-10.7v-40v-40h10.7C122.2,87.7,125.9,87.9,128.5,88.4z"/></g></g></g>
</svg>