<?xml version="1.0" encoding="utf-8"?>
<!-- Svg Vector Icons : http://www.onlinewebfonts.com/icon -->
<!DOCTYPE svg PUBLIC "-//W3C//DTD SVG 1.1//EN" "http://www.w3.org/Graphics/SVG/1.1/DTD/svg11.dtd">
<svg version="1.1" xmlns="http://www.w3.org/2000/svg" xmlns:xlink="http://www.w3.org/1999/xlink" x="0px" y="0px" viewBox="0 0 256 256" enable-background="new 0 0 256 256" xml:space="preserve">
<metadata> Svg Vector Icons : http://www.onlinewebfonts.com/icon </metadata>
<g><g><g><path fill="#000000" d="M78.2,10.5c-6.9,1-15.9,4.8-21.7,9.2C46.6,27.2,39.6,39,38,51.1c-0.7,5-0.7,148.7,0,153.7c0.3,2,1,5.3,1.7,7.4c5.5,17.5,20.1,30.2,38.1,33c6.2,1,94.3,1,100.5,0c20.4-3.3,36.3-19.2,39.6-39.6c1-6.3,1-149.2,0-155.5c-2.9-18-15.6-32.6-33-38.1c-2.1-0.7-5.4-1.4-7.4-1.7C173,9.8,82.4,9.8,78.2,10.5z M175.6,25.2c7.1,2.2,12.5,5.5,17.7,10.8c5.5,5.7,9,12.3,10.4,20c0.7,3.6,0.7,11.5,0.7,74.5l-0.1,70.5l-1.1,3.4c-2.1,6.8-5.4,12.4-10.3,17.3c-4.9,4.8-10.5,8.2-17.3,10.3l-3.4,1l-42.3,0.2c-37.3,0.1-42.8,0-46.3-0.6c-7.7-1.5-14.4-4.9-20.1-10.5c-5.4-5.3-8.8-10.8-10.8-18l-1.1-3.7v-71.9V56.7l1.1-3.7c2-6.8,5.4-12.6,10.3-17.5c6-5.9,13.2-9.7,21.4-11.1c1.2-0.2,21.5-0.3,45-0.3l42.8,0L175.6,25.2z"/><path fill="#000000" d="M89.5,112.4c-0.1,38.4,0,40.1,2.1,45.4c4.3,10.7,12.8,17.6,24.9,20.4c4.7,1.1,16.1,1.1,20.9,0c11.4-2.6,20.4-9.1,24.6-17.8c3.4-7.1,3.3-5.1,3.4-46.7l0.1-37.3h-6.8h-6.8v35.2c0,38.6,0,38.9-2.7,44.3c-5.5,10.9-21.7,15.5-33.9,9.5c-3.7-1.8-7.7-5.6-9.4-9.1c-2.7-5.6-2.8-6-2.8-44.7V76.5h-6.7h-6.8L89.5,112.4z"/></g></g></g>
</svg>